<svg width="272" height="67" viewBox="0 0 272 67" fill="none" xmlns="http://www.w3.org/2000/svg">
<g id="surfbot-logo">
<path d="M73.9587 60.1829C69.4432 60.1829 65.9813 59.406 63.573 57.8522C61.2077 56.2551 60.0251 53.9244 60.0251 50.8598C60.0251 49.306 60.5411 48.0327 61.5732 47.0399C62.6484 46.004 64.0245 45.4861 65.7017 45.4861C66.6908 45.5293 67.4434 45.7882 67.9595 46.263C68.4756 46.6947 68.7336 47.1047 68.7336 47.4932C68.7336 47.5363 68.5186 47.6874 68.0885 47.9464C67.6585 48.2053 67.2714 48.5938 66.9274 49.1118C66.5833 49.6297 66.4113 50.3419 66.4113 51.2483C66.4113 53.2769 67.0134 54.8524 68.2175 55.9746C69.4647 57.0537 71.3784 57.5932 73.9587 57.5932C75.7219 57.5932 77.2701 57.2479 78.6033 56.5573C79.9364 55.8667 80.947 54.9603 81.6351 53.838C82.3662 52.6727 82.7317 51.4641 82.7317 50.2124C82.7317 48.6585 82.2802 47.3205 81.3771 46.1983C80.517 45.0761 79.4418 44.1481 78.1517 43.4143C76.8615 42.6374 75.0983 41.7525 72.8621 40.7598C70.2818 39.5944 68.196 38.5369 66.6048 37.5874C65.0136 36.6378 63.659 35.3861 62.5409 33.8322C61.4227 32.2352 60.8637 30.2713 60.8637 27.9405C60.8637 24.1854 62.1323 21.3798 64.6696 19.5238C67.2499 17.6679 70.6258 16.7399 74.7973 16.7399C78.0657 16.7399 80.904 17.4305 83.3123 18.8117C85.7636 20.1929 86.9892 22.2215 86.9892 24.8976C86.9892 26.4514 86.4517 27.7463 85.3766 28.7822C84.3444 29.7749 82.9898 30.2713 81.3126 30.2713C80.3235 30.2281 79.5709 29.9908 79.0548 29.5591C78.5387 29.0843 78.2807 28.6527 78.2807 28.2643C78.2807 28.2211 78.5602 28.07 79.1193 27.811C79.7214 27.5521 80.2374 27.1636 80.6675 26.6457C81.1405 26.1277 81.3771 25.4155 81.3771 24.5091C81.3771 22.9121 80.7535 21.6604 79.5064 20.754C78.3022 19.8476 76.754 19.3944 74.8618 19.3944C72.2385 19.3944 70.2388 20.0202 68.8626 21.2719C67.5294 22.4805 66.8629 23.9912 66.8629 25.804C66.8629 27.3147 67.2714 28.588 68.0885 29.6239C68.9056 30.6166 70.2173 31.6094 72.0235 32.6021C73.4856 33.379 75.0768 34.1559 76.797 34.9329C79.5494 36.1846 81.7211 37.3284 83.3123 38.3643C84.9465 39.4002 86.3012 40.7598 87.3763 42.4431C88.4944 44.1265 89.0535 46.2199 89.0535 48.7233C89.0535 50.8814 88.3654 52.8453 86.9892 54.615C85.6561 56.3415 83.8284 57.7011 81.5061 58.6938C79.2268 59.6866 76.711 60.1829 73.9587 60.1829Z" fill="#17222D"/>
<path d="M106.616 59.665C103.691 59.665 101.369 58.7802 99.6489 57.0105C97.9287 55.2408 97.0686 52.9101 97.0686 50.0182V38.0406C97.0686 36.9184 97.0256 36.0983 96.9396 35.5803C96.8966 35.0624 96.6385 34.6092 96.1655 34.2207C95.6924 33.8322 94.8968 33.638 93.7787 33.638C93.2626 33.638 92.8756 33.5733 92.6175 33.4438C92.3595 33.2711 92.2305 32.9042 92.2305 32.3431C92.2305 32.0841 92.3165 31.8468 92.4885 31.6309C92.6605 31.372 92.9186 31.2209 93.2626 31.1777C95.9719 30.7893 98.2942 30.2282 100.229 29.4944C100.832 29.2786 101.326 29.1491 101.713 29.1059H101.907C102.595 29.1059 102.939 29.516 102.939 30.3361V49.9534C102.939 51.9389 103.562 53.4712 104.809 54.5502C106.057 55.5861 107.497 56.1041 109.131 56.1041C111.153 56.1041 112.873 55.6077 114.292 54.615C115.711 53.6222 116.657 52.6295 117.13 51.6368V38.0406C117.13 36.9184 117.087 36.0983 117.001 35.5803C116.958 35.0624 116.7 34.6092 116.227 34.2207C115.754 33.8322 114.959 33.638 113.841 33.638C113.324 33.638 112.937 33.5733 112.679 33.4438C112.421 33.2711 112.292 32.9042 112.292 32.3431C112.292 32.0841 112.378 31.8468 112.55 31.6309C112.722 31.372 112.98 31.2209 113.324 31.1777C116.034 30.7893 118.356 30.2282 120.291 29.4944C120.893 29.2786 121.388 29.1491 121.775 29.1059H121.969C122.657 29.1059 123.001 29.516 123.001 30.3361V52.7374C123.001 55.284 124.699 56.5573 128.097 56.5573C128.828 56.5573 129.193 56.9673 129.193 57.7874C129.193 58.3917 128.828 58.7586 128.097 58.8881L117.711 59.6003C117.41 59.6003 117.238 59.4924 117.195 59.2765C117.152 59.1039 117.13 58.7802 117.13 58.3054V54.6797H117.001C115.754 55.8451 114.744 56.7515 113.97 57.399C113.195 58.0032 112.185 58.5212 110.938 58.9528C109.734 59.4276 108.293 59.665 106.616 59.665Z" fill="#17222D"/>
<path d="M132.722 59.0823C132.421 59.0823 132.163 58.9528 131.948 58.6938C131.776 58.4349 131.69 58.1327 131.69 57.7874C131.733 57.2263 131.862 56.9026 132.077 56.8163C132.292 56.6868 132.679 56.622 133.238 56.622C134.356 56.622 135.152 56.4278 135.625 56.0393C136.098 55.6509 136.356 55.1977 136.399 54.6797C136.485 54.1618 136.528 53.3417 136.528 52.2195V37.3931C136.528 36.2709 136.485 35.4508 136.399 34.9329C136.356 34.4149 136.098 33.9617 135.625 33.5733C135.152 33.1848 134.356 32.9906 133.238 32.9906C132.722 32.9906 132.335 32.9258 132.077 32.7963C131.819 32.6237 131.69 32.2568 131.69 31.6957C131.69 31.4367 131.776 31.1993 131.948 30.9835C132.12 30.7245 132.378 30.5735 132.722 30.5303C135.517 30.0987 137.818 29.5376 139.624 28.847C140.356 28.6311 140.85 28.5017 141.108 28.4585H141.302C141.99 28.4585 142.334 28.8685 142.334 29.6886V33.7027H142.527C144.032 32.1921 145.559 31.0051 147.107 30.1418C148.656 29.2354 150.053 28.7822 151.3 28.7822C152.719 28.7822 153.838 29.3217 154.655 30.4008C155.515 31.4367 155.945 32.6453 155.945 34.0265C155.945 35.235 155.579 36.3141 154.848 37.2637C154.117 38.2132 153.107 38.688 151.816 38.688C151.214 38.688 150.677 38.5585 150.204 38.2996C149.774 38.0406 149.537 37.8248 149.494 37.6521C149.537 37.5658 149.752 37.3068 150.139 36.8752C150.526 36.4004 150.72 35.8609 150.72 35.2566C150.72 34.4797 150.505 33.8538 150.075 33.379C149.688 32.9042 149.15 32.6668 148.462 32.6668C147.731 32.6668 146.806 33.0337 145.688 33.7675C144.57 34.4581 143.473 35.3429 142.398 36.422V52.2195C142.398 53.3417 142.441 54.1618 142.527 54.6797C142.613 55.1977 142.893 55.6509 143.366 56.0393C143.839 56.4278 144.635 56.622 145.753 56.622H146.14C146.484 56.622 146.742 56.6868 146.914 56.8163C147.086 56.9458 147.193 57.2695 147.236 57.7874C147.236 58.1327 147.15 58.4349 146.978 58.6938C146.806 58.9528 146.548 59.0823 146.204 59.0823C143.71 58.9528 141.452 58.8881 139.431 58.8881C137.496 58.8881 135.259 58.9528 132.722 59.0823Z" fill="#17222D"/>
<path d="M232.91 59.665C229.986 59.665 227.384 58.9744 225.105 57.5932C222.825 56.1688 221.041 54.3128 219.751 52.0252C218.503 49.6944 217.88 47.2342 217.88 44.6444C217.88 41.4072 218.632 38.6017 220.138 36.2277C221.643 33.8106 223.557 31.9762 225.879 30.7245C228.201 29.4296 230.545 28.7822 232.91 28.7822C235.835 28.7822 238.436 29.4944 240.716 30.9187C242.995 32.2999 244.758 34.1559 246.005 36.4867C247.295 38.7743 247.94 41.213 247.94 43.8028C247.94 47.04 247.166 49.8671 245.618 52.2842C244.113 54.6581 242.199 56.4925 239.877 57.7874C237.555 59.0391 235.232 59.665 232.91 59.665ZM232.91 57.2695C235.835 57.2695 237.963 56.0178 239.296 53.5143C240.673 51.0109 241.361 47.7737 241.361 43.8028C241.361 40.0908 240.651 37.0694 239.232 34.7386C237.856 32.3647 235.749 31.1777 232.91 31.1777C229.943 31.1777 227.793 32.4079 226.459 34.8681C225.126 37.3284 224.46 40.544 224.46 44.5149C224.46 48.2269 225.148 51.2915 226.524 53.7086C227.9 56.0825 230.029 57.2695 232.91 57.2695Z" fill="#17222D"/>
<path d="M264.195 59.9887C262.087 59.9887 260.281 59.2118 258.776 57.6579C257.271 56.1041 256.518 53.8812 256.518 50.9893V31.9547L252.777 32.0841C252.519 32.0841 252.304 31.9762 252.132 31.7604C251.96 31.5015 251.874 31.2209 251.874 30.9188C251.874 30.5303 251.938 30.2066 252.067 29.9476C252.239 29.6455 252.476 29.4728 252.777 29.4297C254.282 29.1275 255.443 28.6527 256.26 28.0053C257.12 27.3147 257.744 26.5809 258.131 25.804C258.518 24.9839 258.991 23.7538 259.55 22.1136C259.765 21.5525 260.238 21.2719 260.969 21.2719C261.27 21.2719 261.571 21.3583 261.872 21.5309C262.173 21.6604 262.324 21.8762 262.324 22.1783L261.872 29.5591L269.42 29.1059H269.549C270.108 29.1059 270.387 29.516 270.387 30.3361C270.387 30.8109 270.301 31.2641 270.129 31.6957C270 32.0841 269.828 32.2784 269.613 32.2784L262.388 32.0841V51.7663C262.388 53.1906 262.668 54.3776 263.227 55.3272C263.829 56.2767 264.797 56.7515 266.13 56.7515C267.463 56.7515 268.646 56.5141 269.678 56.0393C270.237 55.8235 270.581 55.7156 270.71 55.7156C271.011 55.7156 271.247 55.8451 271.419 56.1041C271.591 56.3199 271.763 56.622 271.935 57.0105C271.978 57.0968 272 57.2047 272 57.3342C272 57.5069 271.871 57.7011 271.613 57.9169C270.366 58.737 269.183 59.2765 268.065 59.5355C266.99 59.8376 265.7 59.9887 264.195 59.9887Z" fill="#17222D"/>
<path d="M159.932 58.6938C160.104 58.9528 160.362 59.0823 160.706 59.0823C163.157 58.9528 165.393 58.8881 167.414 58.8881C170.296 58.8881 172.984 58.9528 175.478 59.0823C175.779 59.0823 176.016 58.9528 176.188 58.6938C176.36 58.4349 176.446 58.1327 176.446 57.7874C176.403 57.2695 176.295 56.9457 176.123 56.8163C175.994 56.6868 175.736 56.622 175.349 56.622H174.962C173.543 56.622 172.532 56.5141 171.93 56.2983C171.328 56.0825 170.919 55.694 170.704 55.1329C170.489 54.5286 170.382 53.5575 170.382 52.2195V32.0841H177.22C177.521 32.0841 177.779 31.9547 177.994 31.6957C178.209 31.4367 178.316 31.1346 178.316 30.7893C178.273 30.2713 178.144 29.9476 177.929 29.8181C177.757 29.6455 177.478 29.5591 177.091 29.5591H170.382V25.6745C170.382 23.6027 170.468 21.7899 170.64 20.236C170.812 18.639 171.306 17.1715 172.124 15.8335C172.941 14.4954 174.209 13.8264 175.929 13.8264C176.127 13.8264 176.319 13.8381 176.503 13.8615C176.479 13.131 176.528 12.3961 176.645 11.693C176.558 11.6909 176.47 11.6898 176.381 11.6898C172.597 11.7762 169.651 13.2221 167.544 16.0277C165.479 18.7901 164.447 22.3942 164.447 26.8399V29.5591H160.577C160.018 29.5591 159.631 29.6239 159.416 29.7534C159.201 29.8397 159.072 30.185 159.029 30.7893C159.029 31.1346 159.115 31.4367 159.287 31.6957C159.502 31.9547 159.781 32.0841 160.125 32.0841H164.447V52.2195C164.447 53.3848 164.404 54.2265 164.318 54.7445C164.275 55.2193 164.017 55.6509 163.544 56.0393C163.071 56.4278 162.275 56.622 161.157 56.622C160.598 56.622 160.211 56.6868 159.996 56.8163C159.824 56.9026 159.717 57.2263 159.674 57.7874C159.674 58.1327 159.76 58.4349 159.932 58.6938Z" fill="#17222D"/>
<path fill-rule="evenodd" clip-rule="evenodd" d="M194.415 13.4883C194.415 17.4613 191.206 20.682 187.248 20.682C183.289 20.682 180.08 17.4613 180.08 13.4883C180.08 9.51529 183.289 6.29453 187.248 6.29453C191.206 6.29453 194.415 9.51529 194.415 13.4883ZM187.248 17.0852C189.228 17.0852 190.831 15.4748 190.831 13.4883C190.831 11.5018 189.228 9.89141 187.248 9.89141C185.269 9.89141 183.664 11.5018 183.664 13.4883C183.664 15.4748 185.269 17.0852 187.248 17.0852Z" fill="#17222D"/>
<path fill-rule="evenodd" clip-rule="evenodd" d="M184.107 23.8111V58.4996C184.107 58.8881 184.214 59.1902 184.429 59.406C184.644 59.665 184.945 59.7945 185.332 59.7945C185.719 59.7945 186.042 59.6218 186.3 59.2765C186.558 58.9744 186.794 58.5212 187.009 57.9169C187.224 57.3126 187.418 56.8378 187.59 56.4925H187.912C190.708 58.6075 194.019 59.665 197.847 59.665C200.427 59.665 202.857 58.9744 205.136 57.5932C207.415 56.212 209.222 54.3344 210.555 51.9605C211.931 49.5434 212.619 46.8889 212.619 43.997C212.619 41.0619 212.017 38.4506 210.813 36.163C209.652 33.8322 208.039 32.0194 205.975 30.7245C203.91 29.4296 201.61 28.7822 199.072 28.7822C197.524 28.7822 195.954 29.1059 194.363 29.7534C192.815 30.3576 191.417 31.2856 190.17 32.5373H189.977V23.9282C188.059 24.4321 186.004 24.3919 184.107 23.8111ZM203.588 53.9028C201.997 56.2767 199.889 57.4637 197.266 57.4637C195.89 57.4637 194.664 57.1616 193.589 56.5573C192.557 55.953 191.718 55.2408 191.073 54.4207C190.471 53.5575 190.106 52.7806 189.977 52.09V34.9976C191.826 33.0121 194.105 32.0194 196.815 32.0194C199.868 32.0194 202.169 33.2279 203.717 35.645C205.265 38.019 206.039 40.8893 206.039 44.256C206.039 48.2701 205.222 51.4857 203.588 53.9028Z" fill="#17222D"/>
<path fill-rule="evenodd" clip-rule="evenodd" d="M17.2731 0.502484C18.2076 -0.167495 19.463 -0.167494 20.3977 0.502484C32.0391 8.84835 37.3168 18.8536 37.6493 33.2083C37.8029 40.0629 37.1455 46.3391 35.1447 51.7609C33.0926 57.1858 29.4433 62.1981 24.0707 66.4307C23.3928 66.9605 22.5033 67.1332 21.6774 66.8953C20.0319 66.4212 19.7519 64.4636 18.8353 63.2433C17.9183 64.4643 17.64 66.4208 15.9932 66.8953C15.1674 67.1332 14.278 66.9605 13.6001 66.4307C8.22741 62.1981 4.57823 57.1858 2.52603 51.7609C0.525203 46.3391 -0.132175 40.0629 0.0213737 33.2083C0.353991 18.8536 5.63152 8.84835 17.2731 0.502484ZM23.2916 60.2477C26.6535 57.1454 28.6794 53.76 30.1109 49.8676C31.9119 45.1075 32.4314 39.8503 32.2751 33.3339C32.0159 22.1406 29.4062 14.8563 21.4997 8.09297V27.8758C24.591 28.6743 25.9794 31.7176 25.9794 35.0695C25.9794 38.4215 24.591 41.4648 21.4997 42.2633V58.4492C21.4997 58.4492 22.9362 59.7785 23.2916 60.2477ZM14.3321 60.2477C10.97 57.1454 8.99141 53.76 7.55981 49.8676C5.7589 45.1075 5.23929 39.8503 5.39556 33.3339C5.6544 22.1629 8.25056 14.8472 16.1239 8.09297V27.8758C13.0325 28.6743 11.6443 31.7176 11.6443 35.0695C11.6443 38.4215 13.0325 41.4648 16.1239 42.2633V58.4492C16.1239 58.4492 14.6741 59.7957 14.3321 60.2477ZM18.8119 31.4727C16.8325 31.4727 15.228 33.083 15.228 35.0695C15.228 37.0561 16.8325 38.6664 18.8119 38.6664C20.791 38.6664 22.3956 37.0561 22.3956 35.0695C22.3956 33.083 20.791 31.4727 18.8119 31.4727Z" fill="#17222D"/>
</g>
</svg>
